<svg xmlns="http://www.w3.org/2000/svg" xmlns:xlink="http://www.w3.org/1999/xlink" width="700" height="527.28" viewBox="0 0 1151 867">
	<defs>
    <clipPath id="clip1">
        <path
       d="M 0 207.918 L 146.463 206.956 L 146.967 141.224 L 150.742 141.056 L 150.574 149.037 L 158.387 146.659 L 158.098 136.73 L 161.464 136.609 L 161.705 146.659 L 172.668 146.538 L 172.668 131.921 L 176.995 132.209 L 176.659 146.659 L 184.088 147.068 L 183.968 141.729 L 180.434 137.402 L 185.459 134.661 L 188.872 128.145 L 200.076 120.501 L 211.302 126.439 L 216.615 140.216 L 213.323 141.513 L 213.323 146.538 L 225.657 146.081 L 225.2 137.402 L 227.41 137.113 L 228.277 147.982 L 232.052 149.279 L 231.595 141.513 L 230.681 137.402 L 230.681 124.155 L 235.249 112.735 L 244.385 100.858 L 256.719 91.2658 L 269.966 85.3274 L 275.904 83.5003 L 273.163 78.4755 L 274.702 72.7999 L 276.865 63.2333 L 279.558 70.71 L 279.485 75.6614 L 280.015 84.4873 L 292.806 88.9818 L 304.346 96.6266 L 312.327 103.983 L 319.804 113.817 L 323.868 128.266 L 325.238 137.402 L 322.954 141.513 L 322.954 146.538 L 326.152 145.168 L 326.152 135.118 L 330.263 134.661 L 329.806 146.538 L 342.596 146.538 L 342.596 141.056 L 335.744 140.143 L 341.683 130.55 L 346.251 123.241 L 354.93 117.76 L 364.979 125.069 L 367.72 134.204 L 374.572 136.488 L 371.831 141.97 L 373.201 145.624 L 378.226 145.624 L 378.226 139.229 L 375.942 135.118 L 380.053 130.093 L 381.881 136.488 L 381.881 145.624 L 392.387 146.081 L 392.387 140.6 L 394.671 135.575 L 396.498 141.97 L 396.041 146.995 L 404.095 149.494 L 403.35 139.639 L 406.642 139.35 L 407.004 205.921 L 434.412 205.921 L 437.609 192.217 L 446.745 193.588 L 449.029 204.094 L 567.555 205.008 L 567.796 425.491 L 0.288769 425.659 Z"/>
    </clipPath>
    <clipPath id="clip2">
       <path
       d="M 14.8492 10.0868 L 80.6102 35.5426 L 125.865 6.55125 L 152.028 36.9568 L 199.404 8.67257 L 255.973 41.9066 L 305.47 3.72283 L 362.039 36.2497 L 386.787 8.67257 L 454.67 44.0279 L 477.297 9.37968 L 502.753 27.7645 L 555.079 7.96547 L 565.685 32.0071 L 530.33 98.4751 L 567.1 153.629 L 523.259 190.399 L 563.564 254.039 L 528.916 280.909 L 567.1 352.326 L 543.058 418.087 L 501.339 388.389 L 441.235 423.037 L 414.365 391.217 L 325.976 420.916 L 272.236 393.339 L 248.902 420.916 L 178.898 389.803 L 108.894 420.209 L 65.7609 392.632 L 35.3553 420.916 L 0.707107 391.217 L 24.7487 318.385 L 2.82843 266.767 L 29.6985 245.553 L 1.41421 191.813 L 29.6985 123.224 L 3.53553 82.2117 L 26.8701 46.8563 Z"/>
    </clipPath>
    <clipPath id="clip3">
       <rect width="568" height="426" rx="85.2" ry="85.2"/>
    </clipPath>
    <clipPath id="clip4">
        <ellipse cx="284" cy="213" rx="284" ry="213"/>
    </clipPath>
	</defs>
	<image xlink:href="humayun-thom-arno.jpg" width="568" height="426" clip-path="url(#clip1)" transform="translate(5, 5)"/>
	<image xlink:href="humayun-thom-arno.jpg" width="568" height="426" clip-path="url(#clip2)" transform="translate(578, 5)"/>
	<image xlink:href="humayun-thom-arno.jpg" width="568" height="426" clip-path="url(#clip3)" transform="translate(5, 436)"/>
	<image xlink:href="humayun-thom-arno.jpg" width="568" height="426" clip-path="url(#clip4)" transform="translate(578, 436)"/>
</svg>