<svg xmlns="http://www.w3.org/2000/svg" width="142" height="142">
  <path
     d="M 25,0 C 25,13.807119 13.807119,25 0,25 L 0,46 C 13.807119,46 25,57.192881 25,71 25,84.807119 13.807119,96 0,96 l 0,21 c 13.807119,0 25,11.19288 25,25 l 21,0 c 0,-13.80712 11.192881,-25 25,-25 13.807119,0 25,11.19288 25,25 l 21,0 c 0,-13.80712 11.19288,-25 25,-25 l 0,-21 c -13.80712,0 -25,-11.192881 -25,-25 0,-13.807119 11.19288,-25 25,-25 l 0,-21 C 128.19288,25 117,13.807119 117,0 L 96,0 C 96,13.807119 84.807119,25 71,25 57.192881,25 46,13.807119 46,0 L 25,0 z" />
</svg>