<?xml version="1.0" encoding="UTF-8" standalone="no"?>
<!-- Generator: Adobe Illustrator 15.1.0, SVG Export Plug-In . SVG Version: 6.00 Build 0)  -->

<svg
   xmlns:dc="http://purl.org/dc/elements/1.1/"
   xmlns:cc="http://creativecommons.org/ns#"
   xmlns:rdf="http://www.w3.org/1999/02/22-rdf-syntax-ns#"
   xmlns:svg="http://www.w3.org/2000/svg"
   xmlns="http://www.w3.org/2000/svg"
   xmlns:sodipodi="http://sodipodi.sourceforge.net/DTD/sodipodi-0.dtd"
   xmlns:inkscape="http://www.inkscape.org/namespaces/inkscape"
   version="1.1"
   id="Layer_1"
   x="0px"
   y="0px"
   width="24.273989"
   height="26.011738"
   viewBox="0 0 24.273989 26.011738"
   enable-background="new 0 0 93.32 100"
   xml:space="preserve"
   inkscape:version="0.48.2 r9819"
   sodipodi:docname="speaker.svg"><metadata
   id="metadata15"><rdf:RDF><cc:Work
       rdf:about=""><dc:format>image/svg+xml</dc:format><dc:type
         rdf:resource="http://purl.org/dc/dcmitype/StillImage" /><dc:title></dc:title></cc:Work></rdf:RDF></metadata><defs
   id="defs13" /><sodipodi:namedview
   pagecolor="#ffffff"
   bordercolor="#666666"
   borderopacity="1"
   objecttolerance="10"
   gridtolerance="10"
   guidetolerance="10"
   inkscape:pageopacity="0"
   inkscape:pageshadow="2"
   inkscape:window-width="1099"
   inkscape:window-height="737"
   id="namedview11"
   showgrid="false"
   fit-margin-top="0"
   fit-margin-left="0"
   fit-margin-right="0"
   fit-margin-bottom="0"
   inkscape:zoom="5.1899647"
   inkscape:cx="46.66"
   inkscape:cy="18.716609"
   inkscape:window-x="56"
   inkscape:window-y="10"
   inkscape:window-maximized="0"
   inkscape:current-layer="Layer_1" />
<polygon
   points="39.135,20.398 22.076,37.457 0,37.457 0,62.542 22.076,62.542 39.135,79.601 "
   id="polygon3"
   transform="matrix(0.26011561,0,0,0.26011561,0,9.9706168e-6)" />
<path
   d="m 16.443728,13.005791 c 0,0 0,0 0,0 l 0,0 c 0,-2.61e-4 0,-2.61e-4 0,-5.21e-4 -0.04162,-2.868555 -0.982456,-5.2842485 -2.951011,-7.3786993 -0.692688,-0.7371677 -1.798179,0.3722254 -1.107312,1.1073121 1.68737,1.795578 2.456271,3.8169362 2.492167,6.2716472 -0.0359,2.455232 -0.804797,4.47607 -2.492167,6.272168 -0.690867,0.735087 0.414624,1.84474 1.107312,1.107052 1.968295,-2.094191 2.909393,-4.509884 2.951011,-7.378959 0,0 0,0 0,0 z"
   id="path5"
   inkscape:connector-curvature="0" />
<path
   d="m 20.358988,13.005791 c 0,0 0,0 0,0 l 0,0 c 0,-2.61e-4 0,-2.61e-4 0,-5.21e-4 -0.0541,-3.8403467 -1.370809,-7.287919 -4.025809,-10.0724566 -0.69815,-0.7322254 -1.804162,0.3769076 -1.107312,1.1073122 2.370173,2.4864451 3.518584,5.5376011 3.566965,8.9656654 -0.04838,3.428063 -1.196792,6.479479 -3.566965,8.965664 -0.69685,0.730665 0.409162,1.839538 1.107312,1.107052 2.655,-2.784537 3.971705,-6.23211 4.025809,-10.072716 0,0 0,0 0,0 z"
   id="path7"
   inkscape:connector-curvature="0" />
<path
   d="m 24.273988,13.005791 0,0 c 0,0 0,0 0,0 C 24.219884,8.1738828 22.529133,3.7285071 19.174162,0.23853598 18.47341,-0.49082818 17.367399,0.61804465 18.06685,1.3458481 c 3.069624,3.1931792 4.59156,7.2390174 4.641242,11.6599429 -0.04942,4.420924 -1.571618,8.466763 -4.641242,11.660462 -0.699451,0.727543 0.4063,1.836156 1.107312,1.107052 3.354971,-3.490491 5.045722,-7.935347 5.099826,-12.767254 0,-2.6e-4 0,-2.6e-4 0,-2.6e-4 0,0 0,0 0,0 z"
   id="path9"
   inkscape:connector-curvature="0" />
</svg>