<svg id="Layer_1" data-name="Layer 1" xmlns="http://www.w3.org/2000/svg" height="20" width="50" viewBox="0 0 46.46 14.89"><defs><style>.cls-1{fill:#ea4535;}.cls-2{fill:#f9bc15;}.cls-3{fill:#557ebf;}.cls-4{fill:#36a852;}</style></defs><title>google_logo_small</title><path class="cls-1" d="M20.88,9.81A3.73,3.73,0,0,1,17,13.54a3.72,3.72,0,1,1,0-7.44A3.72,3.72,0,0,1,20.88,9.81Zm-1.68,0a2.16,2.16,0,1,0-4.31,0,2.16,2.16,0,1,0,4.31,0Z" transform="translate(-1 -1.98)"/><path class="cls-2" d="M29.15,9.81a3.84,3.84,0,1,1-3.83-3.72A3.73,3.73,0,0,1,29.15,9.81Zm-1.68,0a2.16,2.16,0,1,0-4.31,0,2.16,2.16,0,1,0,4.31,0Z" transform="translate(-1 -1.98)"/><path class="cls-3" d="M37.08,6.32V13c0,2.75-1.66,3.87-3.63,3.87a3.64,3.64,0,0,1-3.39-2.19l1.46-.59a2.11,2.11,0,0,0,1.92,1.32,1.92,1.92,0,0,0,2-2.18v-.54h-.06a2.63,2.63,0,0,1-2,.85,3.72,3.72,0,0,1,0-7.44,2.68,2.68,0,0,1,2,.83h.06V6.32h1.59ZM35.6,9.83a2.12,2.12,0,0,0-2-2.27,2.18,2.18,0,0,0-2.13,2.27,2.16,2.16,0,0,0,2.13,2.24A2.1,2.1,0,0,0,35.6,9.83Z" transform="translate(-1 -1.98)"/><path class="cls-4" d="M39.7,2.4V13.31H38.07V2.4Z" transform="translate(-1 -1.98)"/><path class="cls-1" d="M46.08,11l1.3.85a3.83,3.83,0,0,1-3.18,1.65,3.69,3.69,0,0,1-3.79-3.72A3.58,3.58,0,0,1,44,6.09a3.53,3.53,0,0,1,3.27,2.37l.17.42-5.11,2.06a2,2,0,0,0,1.85,1.13,2.19,2.19,0,0,0,1.88-1Zm-4-1.34,3.41-1.38a1.49,1.49,0,0,0-1.42-.79A2.07,2.07,0,0,0,42.07,9.7Z" transform="translate(-1 -1.98)"/><path class="cls-3" d="M7,8.85V7.27h5.46a5.1,5.1,0,0,1,.08,1,5.13,5.13,0,0,1-1.4,3.69A5.5,5.5,0,0,1,7,13.53,5.94,5.94,0,0,1,1,7.76,5.94,5.94,0,0,1,7,2a5.73,5.73,0,0,1,4.07,1.59L9.94,4.68A4.19,4.19,0,0,0,7,3.56,4.2,4.2,0,1,0,7,12a4,4,0,0,0,3-1.16,3.23,3.23,0,0,0,.88-2Z" transform="translate(-1 -1.98)"/></svg>
