<?xml version="1.0" encoding="utf-8"?>
<!-- Generator: Adobe Illustrator 15.1.0, SVG Export Plug-In . SVG Version: 6.00 Build 0)  -->
<!DOCTYPE svg PUBLIC "-//W3C//DTD SVG 1.1//EN" "http://www.w3.org/Graphics/SVG/1.1/DTD/svg11.dtd">
<svg version="1.1" id="Layer_1" xmlns="http://www.w3.org/2000/svg" xmlns:xlink="http://www.w3.org/1999/xlink" x="0px" y="0px"
	 width="320px" height="182.53px" viewBox="0 0 320 182.53" enable-background="new 0 0 320 182.53" xml:space="preserve">
<g>
	<g>
		<g>
			<g>
				<path fill="none" d="M27.862,107.524c-4.002-1.452-7.595-3.84-10.529-6.921C20.218,103.645,23.724,106.032,27.862,107.524z"/>
			</g>
			<g>
				<path fill="none" d="M39.4,109.258c-1.058,0.008-1.972-0.003-2.451-0.015C37.749,109.274,38.565,109.281,39.4,109.258z"/>
			</g>
			<g>
				<path fill="#28B3D3" d="M186.501,117.27c4.546-1.142,8.87-4.024,9.396-8.59c-2.876-3.317-7.246-7.209-10.382-7.271
					C186.504,106.234,187.075,111.602,186.501,117.27z"/>
			</g>
			<g>
				<path fill="#59CBF2" d="M195.898,108.68c0.002-0.018,0.005-0.034,0.006-0.05c0.659-6.046-5.158-9.873-11.181-10.674
					c0.283,1.115,0.549,2.269,0.792,3.453C188.652,101.47,193.021,105.362,195.898,108.68z"/>
			</g>
			<g>
				<path fill="#FFFFFF" d="M143.556,74.323c-0.595,5.083,2.534,10.211,6.979,13.697c6.223,0.599,15.351-0.059,21.631-3.215
					c0.696-2.026,0.965-4.375,0.613-6.924c-1.044-7.588-10.079-14.828-18.805-13.469C147.67,65.396,144.028,70.278,143.556,74.323z
					 M150.671,73.053c0.859-1.548,2.455-2.589,4.829-3.05c5.367-1.039,10.722,2.57,11.181,7.37c0.391,4.086-2.589,8.935-8.386,8.132
					C153.769,84.88,147.385,78.979,150.671,73.053z"/>
			</g>
			<g>
				<path fill="#9EDCF4" d="M150.536,88.02c4.857,3.808,11.285,5.654,16.145,3.33c2.381-1.139,4.428-3.468,5.486-6.544
					C165.886,87.961,156.759,88.619,150.536,88.02z"/>
			</g>
			<g>
				<path d="M158.295,85.505c5.796,0.803,8.777-4.045,8.386-8.132c-0.459-4.8-5.814-8.409-11.181-7.37
					c-2.374,0.461-3.97,1.502-4.829,3.05C147.385,78.979,153.769,84.88,158.295,85.505z"/>
			</g>
			<g>
				<path stroke="#000000" stroke-miterlimit="10" d="M109.758,110.154c0.002,2.107,2.704,3.721,5.082,4.32
					c7.83,1.973,12.028-7.488,18.805-7.877c4.445-0.255,10.065,2.863,13.722,0.508c2.318-1.491,3.525-7.631,1.779-10.418
					c-0.254,0-0.508,0-0.763,0c-0.061,0.363-0.419,0.429-0.508,0.762c0.213,3.07-0.033,7.187-2.794,8.132
					c-3.706,1.271-8.195-1.319-12.453-1.017c-6.879,0.491-10.126,8.247-15.246,8.386
					C113.728,113.049,112.135,109.229,109.758,110.154z"/>
			</g>
			<g>
				<path fill="#F3782D" d="M117.009,28.726c2.354,2.504,3.684,5.964,2.914,10.021c-0.121,0.632-0.337,1.246-0.634,1.828
					c0.229,3.539,0.237,7.104,0.542,10.854c0.664-0.011,1.365-0.006,2.125,0.024c3.725-6.121,8.373-13.328,6.354-21.854
					c-1.942-8.199-9.132-14.875-19.013-15.27c2.865,3.566,4.961,8.228,6.672,11.902C116.359,27.072,116.704,27.903,117.009,28.726z"
					/>
			</g>
			<g>
				<path fill="#C55E28" d="M105.438,53.231c2.703,0.028,5.448-0.973,8.131-1.271c2.072-0.23,3.915-0.493,6.261-0.533
					c-0.304-3.749-0.312-7.314-0.542-10.854c-1.382,2.712-4.528,4.735-8.006,4.779c-4.247,0.053-9.362-2.326-9.911-6.099
					c-0.554-3.812,2.663-7.753,6.099-7.878c1.936-0.071,4.396,1.583,4.828,3.303c0.569,2.274,0.186,4.762-2.542,5.083
					c0.325-1.984,1.985-6.024-1.779-6.353c-2.195-0.19-4.855,2.308-4.828,4.828c0.076,6.62,13.448,6.579,14.993,0.509
					c1.452-5.7-3.504-12.93-10.927-12.707c-3.555,0.106-6,1.807-7.369,4.066c-0.783,1.293-0.376,3.148-2.033,4.32
					c-1.533-0.999-0.341-3.278,0-4.066c0.523-1.208,1.591-2.651,2.287-3.303c4.601-4.327,12.529-2.986,16.908,1.668
					c-0.305-0.823-0.649-1.654-1.041-2.495c-1.71-3.675-3.807-8.336-6.672-11.902c-0.763-0.03-1.54-0.024-2.334,0.022
					C92.079,15.225,85.495,32.643,93.24,45.354C95.471,49.016,100.252,53.176,105.438,53.231z"/>
			</g>
			<g>
				<path d="M117.009,28.726c1.502,4.059,2.027,7.938,2.28,11.849c0.296-0.582,0.513-1.196,0.634-1.828
					C120.692,34.69,119.363,31.23,117.009,28.726z"/>
			</g>
			<g>
				<path d="M100.101,27.058c-0.696,0.652-1.763,2.096-2.287,3.303c-0.341,0.788-1.533,3.067,0,4.066
					c1.657-1.171,1.25-3.026,2.033-4.32c1.37-2.259,3.814-3.96,7.369-4.066c7.423-0.223,12.378,7.007,10.927,12.707
					c-1.545,6.07-14.917,6.111-14.993-0.509c-0.027-2.521,2.633-5.019,4.828-4.828c3.764,0.329,2.104,4.369,1.779,6.353
					c2.727-0.32,3.111-2.808,2.542-5.083c-0.432-1.72-2.892-3.375-4.828-3.303c-3.436,0.125-6.653,4.066-6.099,7.878
					c0.549,3.773,5.664,6.152,9.911,6.099c3.478-0.044,6.624-2.067,8.006-4.779c-0.253-3.911-0.778-7.79-2.28-11.849
					C112.63,24.071,104.702,22.731,100.101,27.058z"/>
			</g>
			<g>
				<path fill="#FFFFFF" d="M28.983,107.899c-0.106-0.033-0.214-0.065-0.32-0.101c0.028,0.01,0.055,0.02,0.083,0.029
					C28.825,107.854,28.905,107.875,28.983,107.899z"/>
			</g>
			<g>
				<path fill="#FFFFFF" d="M16.748,99.969c-0.036-0.041-0.073-0.08-0.108-0.12c0.005,0.007,0.01,0.014,0.016,0.02
					C16.687,99.902,16.718,99.935,16.748,99.969z"/>
			</g>
			<g>
				<path fill="#FFFFFF" d="M16.062,99.176c-4.142-4.968-6.824-11.395-8.088-18.417c0.167,1.207,0.391,2.401,0.673,3.579
					C9.949,89.759,12.472,94.904,16.062,99.176z"/>
			</g>
			<g>
				<path fill="#FFFFFF" d="M36.949,109.243c-0.135-0.005-0.271-0.01-0.404-0.017c0.041,0.002,0.082,0.005,0.123,0.008
					C36.729,109.236,36.825,109.24,36.949,109.243z"/>
			</g>
			<g>
				<path fill="#FFFFFF" d="M45.465,108.63c-2.111,0.37-4.132,0.574-6.065,0.628C41.979,109.239,45.408,109.112,45.465,108.63z"/>
			</g>
			<g>
				<path d="M82.313,112.95c-3.063-0.702-5.906-2.805-7.899-5.72c-0.871-0.192-1.76-0.382-2.678-0.558
					c2.803,5.563,8.447,9.314,15.406,8.565c7.434-0.8,15.718-7.004,19.445-13.313c-1.42,0.781-2.863,1.524-4.328,2.213
					C97.441,109.654,89.538,114.606,82.313,112.95z"/>
			</g>
			<g>
				<path d="M74.414,107.229c-2.026-2.964-3.174-6.768-2.773-10.797c0.874-8.813,9.118-15.631,17.788-16.772
					c10.547-1.387,21.082,7.017,16.772,18.296c-0.735,1.923-2.117,4.093-3.941,6.182c1.465-0.689,2.908-1.433,4.328-2.213
					c0.13-0.222,0.256-0.443,0.375-0.664c6.755-12.531-3.372-24.851-16.771-23.634c-11.222,1.02-19.539,8.079-20.33,19.567
					c-0.233,3.391,0.458,6.666,1.875,9.478C72.653,106.847,73.542,107.038,74.414,107.229z"/>
			</g>
			<g>
				<path fill="#FFFFFF" d="M88.321,108.543c4.867-0.716,9.508-2.319,13.938-4.405c1.824-2.089,3.207-4.258,3.941-6.182
					c4.31-11.28-6.225-19.683-16.772-18.296c-8.67,1.141-16.914,7.959-17.788,16.772c-0.4,4.029,0.748,7.833,2.773,10.797
					C79.006,108.242,83.095,109.313,88.321,108.543z M81.042,94.145c0.707-5.337,5.408-8.369,11.182-8.64
					c4.122-0.193,8.338,2.676,8.64,7.116c0.439,6.472-6.48,12.426-12.96,11.689C83.322,103.789,80.331,99.524,81.042,94.145z"/>
			</g>
			<g>
				<path fill="#A5DEF1" d="M82.313,112.95c7.226,1.657,15.129-3.295,19.946-8.812c-4.43,2.086-9.071,3.689-13.938,4.405
					c-5.226,0.771-9.314-0.301-13.907-1.313C76.406,110.145,79.25,112.248,82.313,112.95z"/>
			</g>
			<g>
				<path d="M100.864,92.621c-0.302-4.44-4.518-7.309-8.64-7.116c-5.774,0.271-10.475,3.303-11.182,8.64
					c-0.711,5.379,2.28,9.644,6.862,10.165C94.384,105.047,101.303,99.092,100.864,92.621z"/>
			</g>
			<g>
				<path fill="#C55E28" d="M55.376,95.161c1.014-1.131,1.73-3.463,2.542-5.083c2.751-5.489,5.715-9.702,9.148-14.23
					c-0.63-1.975-1.368-3.933-2.226-5.83c-4.346-2.32-12.883-2.777-16.113-3.278c-7.935-1.232-16.409-1.972-24.313-0.152
					c-2.533,0.583-4.738,1.581-6.822,2.77c-0.432,1.475-0.719,2.971-0.842,4.457c-1.273,15.293,9.463,28.4,25.158,26.428
					C45.649,99.773,53.17,97.621,55.376,95.161z M50.802,73.307c-2.801-1.662-2.389-2.79-4.066-3.812
					c-3.596-2.188-10.036-3.047-13.468,1.271c-3.502,4.407-3.408,14.774,2.287,16.772c5.764,2.022,14.638-5.271,10.674-10.927
					c-0.631-0.899-3.104-2.191-4.829-2.033c-1.24,0.114-4.061,1.863-3.049,3.812c1.065,2.049,2.963,0.013,4.829,1.271
					c-0.435,2.699-5.599,1.464-6.353,0c-2.737-8.04,10.528-9.107,11.689-2.033c1.542,9.396-10.351,15.825-16.518,9.657
					c-6.496-6.495-2.132-22.619,9.656-21.346C45.577,66.362,51.41,69.114,50.802,73.307z"/>
			</g>
			<g>
				<path fill="#F3782D" d="M48.727,66.74c3.23,0.501,11.768,0.958,16.113,3.278c-4.259-9.425-11.479-17.337-23.187-18.312
					c-11.859-0.987-21.198,7.877-24.062,17.651c2.084-1.189,4.29-2.187,6.822-2.77C32.318,64.769,40.792,65.508,48.727,66.74z"/>
			</g>
			<g>
				<path d="M41.654,65.938c-11.789-1.273-16.152,14.851-9.656,21.346c6.167,6.168,18.06-0.261,16.518-9.657
					c-1.162-7.075-14.426-6.007-11.689,2.033c0.754,1.464,5.918,2.699,6.353,0c-1.866-1.257-3.764,0.778-4.829-1.271
					c-1.011-1.949,1.809-3.698,3.049-3.812c1.726-0.158,4.198,1.134,4.829,2.033c3.964,5.656-4.91,12.95-10.674,10.927
					c-5.695-1.998-5.789-12.365-2.287-16.772c3.433-4.318,9.872-3.459,13.468-1.271c1.677,1.022,1.265,2.15,4.066,3.812
					C51.41,69.114,45.577,66.362,41.654,65.938z"/>
			</g>
		</g>
		<g>
			<g>
				<path fill="none" d="M36.949,109.243c-0.135-0.005-0.271-0.01-0.404-0.017c0.041,0.002,0.082,0.005,0.123,0.008
					C36.729,109.236,36.825,109.24,36.949,109.243z"/>
			</g>
			<g>
				<path fill="none" d="M28.983,107.899c-0.106-0.033-0.214-0.065-0.32-0.101c0.028,0.01,0.055,0.02,0.083,0.029
					C28.825,107.854,28.905,107.875,28.983,107.899z"/>
			</g>
			<g>
				<path fill="none" d="M16.748,99.969c-0.036-0.041-0.073-0.08-0.108-0.12c0.005,0.007,0.01,0.014,0.016,0.02
					C16.687,99.902,16.718,99.935,16.748,99.969z"/>
			</g>
			<g>
				<path fill="none" d="M39.4,109.258c-1.058,0.008-1.972-0.003-2.451-0.015C37.749,109.274,38.565,109.281,39.4,109.258z"/>
			</g>
			<g>
				<path fill="none" d="M45.465,108.63c-2.111,0.37-4.132,0.574-6.065,0.628C41.979,109.239,45.408,109.112,45.465,108.63z"/>
			</g>
			<g>
				<path fill="none" d="M109.758,110.154c0.002,2.107,2.704,3.721,5.082,4.32c7.83,1.973,12.028-7.488,18.805-7.877
					c4.445-0.255,10.065,2.863,13.722,0.508c2.318-1.491,3.525-7.631,1.779-10.418c-0.254,0-0.508,0-0.763,0
					c-0.061,0.363-0.419,0.429-0.508,0.762c0.213,3.07-0.033,7.187-2.794,8.132c-3.706,1.271-8.195-1.319-12.453-1.017
					c-6.879,0.491-10.126,8.247-15.246,8.386C113.728,113.049,112.135,109.229,109.758,110.154z"/>
			</g>
			<g>
				<path fill="none" d="M87.142,115.237c7.434-0.8,15.718-7.004,19.445-13.313c0.13-0.222,0.256-0.443,0.375-0.664
					c6.755-12.531-3.372-24.851-16.771-23.634c-11.222,1.02-19.539,8.079-20.33,19.567c-0.233,3.391,0.458,6.666,1.875,9.478
					C74.538,112.235,80.183,115.986,87.142,115.237z"/>
			</g>
			<g>
				<path fill="none" d="M27.862,107.524c-4.002-1.452-7.595-3.84-10.529-6.921C20.218,103.645,23.724,106.032,27.862,107.524z"/>
			</g>
			<g>
				<path fill="none" d="M143.556,74.323c-0.595,5.083,2.534,10.211,6.979,13.697c4.857,3.808,11.285,5.654,16.145,3.33
					c2.381-1.139,4.428-3.468,5.486-6.544c0.696-2.026,0.965-4.375,0.613-6.924c-1.044-7.588-10.079-14.828-18.805-13.469
					C147.67,65.396,144.028,70.278,143.556,74.323z"/>
			</g>
			<g>
				<path fill="none" d="M105.438,53.231c2.703,0.028,5.448-0.973,8.131-1.271c2.072-0.23,3.915-0.493,6.261-0.533
					c0.664-0.011,1.365-0.006,2.125,0.024c3.725-6.121,8.373-13.328,6.354-21.854c-1.942-8.199-9.132-14.875-19.013-15.27
					c-0.763-0.03-1.54-0.024-2.334,0.022C92.079,15.225,85.495,32.643,93.24,45.354C95.471,49.016,100.252,53.176,105.438,53.231z"
					/>
			</g>
			<g>
				<path fill="none" d="M55.376,95.161c1.014-1.131,1.73-3.463,2.542-5.083c2.751-5.489,5.715-9.702,9.148-14.23
					c-0.63-1.975-1.368-3.933-2.226-5.83c-4.259-9.425-11.479-17.337-23.187-18.312c-11.859-0.987-21.198,7.877-24.062,17.651
					c-0.432,1.475-0.719,2.971-0.842,4.457c-1.273,15.293,9.463,28.4,25.158,26.428C45.649,99.773,53.17,97.621,55.376,95.161z"/>
			</g>
			<g>
				<path fill="none" d="M186.501,117.27c4.546-1.142,8.87-4.024,9.396-8.59c0.002-0.018,0.005-0.034,0.006-0.05
					c0.659-6.046-5.158-9.873-11.181-10.674c0.283,1.115,0.549,2.269,0.792,3.453C186.504,106.234,187.075,111.602,186.501,117.27z"
					/>
			</g>
			<g>
				<path fill="none" d="M16.062,99.176c-4.142-4.968-6.824-11.395-8.088-18.417c0.167,1.207,0.391,2.401,0.673,3.579
					C9.949,89.759,12.472,94.904,16.062,99.176z"/>
			</g>
			<g>
				<path d="M180.605,143.44c-6.326,2.78-12.636,5.599-19.238,7.9c-0.093,0.079-0.185,0.159-0.278,0.236
					c-11.206,9.402-24.126,16.243-40.913,18.296c-7.961,0.974-16.157,0.343-23.733-1.57c-0.429,0.55-0.852,1.104-1.262,1.668
					c0.41-0.563,0.833-1.118,1.262-1.668c-8.524-2.152-16.265-5.931-22.009-10.882c-9.079-7.825-16.85-18.418-19.642-31.958
					c-2.314-3.646-4.027-7.657-4.839-11.93c0.812,4.273,2.525,8.284,4.839,11.93c-0.443-2.148-0.765-4.37-0.942-6.668
					c-0.166-2.155-0.196-5.029,0-7.624c1.367-18.03,10.482-30.4,21.6-40.151c11.547-10.126,25.94-17.097,44.979-17.788
					c13.25-0.48,22.921,4.559,31.765,9.148c-2.122,1.525-4.376,1.802-6.098,3.304c-14.198,12.386,9.704,37.056,23.379,25.92
					c2.012-1.639,2.653-3.377,4.828-5.845c3.921,9.192,8.2,15.465,7.624,27.445c-0.477,9.884-3.878,18.292-8.79,25.379
					c1.771,1.422,3.409,3.024,4.916,4.717c-1.507-1.693-3.145-3.295-4.916-4.717c-3.366,4.855-7.441,9.091-11.771,12.756
					C167.969,149.039,174.279,146.22,180.605,143.44c3.859-5.874,6.878-12.53,8.692-20.071c1.977-0.958,4.432-1.319,6.353-2.542
					c5.235-3.332,8.582-13.567,4.829-20.329c-2.531-4.56-8.135-7.636-13.723-8.895c-0.523-1.873-1.373-3.623-2.287-5.591
					c-0.854-1.832-2.463-3.763-2.795-5.336c-0.315-1.495,0.19-3.09,0-4.575c-1.443-11.227-11.995-19.026-23.379-20.33
					c-6.574-4.353-14.34-7.514-23.125-9.656c7.966-22.223-6.364-40.024-26.429-41.167c-0.508,0-1.017,0-1.525,0
					C90.163,5.774,78.84,19.857,81.55,38.493c0.813,5.588,2.765,9.898,5.845,13.976c-5.752,2.887-11.163,6.117-15.755,10.165
					c-6.768-9.9-14.904-18.513-28.97-20.076c-9.022-1.001-16.999,2.767-22.109,6.862c-3.522,2.822-6.494,6.371-8.763,10.266
					C8.106,66.021,6.982,73.57,7.973,80.76c1.265,7.021,3.946,13.449,8.088,18.417c0.189,0.227,0.382,0.452,0.579,0.673
					c0.035,0.041,0.072,0.08,0.108,0.12c0.166,0.186,0.334,0.369,0.504,0.55c0.026,0.028,0.054,0.056,0.08,0.084
					c2.934,3.082,6.527,5.47,10.529,6.921c0.041,0.015,0.082,0.028,0.122,0.043c0.225,0.08,0.451,0.158,0.679,0.231
					c0.106,0.035,0.213,0.067,0.32,0.101c0.191,0.061,0.383,0.12,0.577,0.175c0.121,0.035,0.241,0.068,0.363,0.102
					c0.188,0.052,0.378,0.103,0.568,0.15c0.113,0.029,0.227,0.058,0.342,0.085c0.213,0.051,0.428,0.1,0.645,0.146
					c0.09,0.02,0.18,0.04,0.271,0.059c0.277,0.057,0.557,0.111,0.839,0.161c0.029,0.005,0.058,0.011,0.087,0.016
					c0.324,0.057,0.651,0.107,0.981,0.155c0.327,0.046,0.656,0.088,0.988,0.124c0.031,0.003,0.062,0.006,0.092,0.009
					c0.285,0.03,0.571,0.058,0.86,0.081c0.102,0.008,0.204,0.014,0.306,0.021c0.213,0.015,0.426,0.029,0.643,0.041
					c0.134,0.007,0.27,0.012,0.404,0.017c0.479,0.012,1.393,0.023,2.451,0.015c1.933-0.054,3.954-0.258,6.065-0.628
					c-2.002,16.579,2.806,28.631,8.895,38.88c1.118,1.883,3.646,4.699,3.812,6.099c0.363,3.067-1.987,5.191-3.049,6.861
					c-3.746,5.89-10.414,14.97-20.584,11.689c-8.23-2.656-11.981-15.26-7.369-23.125c0.98-1.674,2.966-3.89,5.336-4.574
					c4.719-1.359,11.243,0.971,10.165,6.353c-0.768,3.842-6.445,5.354-10.165,5.337c0.729-1.345,5.715-7.479,1.017-7.878
					c-2.541-0.216-6.435,6.287-5.591,9.657c0.628,2.507,3.658,3.42,7.116,3.049c6.502-0.699,15.583-7.171,11.689-15.501
					c-3.835-8.206-17.542-7.125-22.363-0.508c-9.077,12.462-1.608,34.273,16.264,32.273c6.249-0.699,10.244-4.203,13.214-7.37
					c3.356-3.578,5.621-6.895,8.386-12.198c10.798,11.903,25.163,20.238,46.25,21.855c2.287,0,4.574,0,6.861,0
					c19.419-1.642,35.313-8.355,47.52-17.535C169.629,156.913,175.776,150.791,180.605,143.44z M184.723,97.956
					c6.023,0.801,11.84,4.628,11.181,10.674c-0.001,0.016-0.004,0.032-0.006,0.05c1.101,1.269,1.983,2.453,2.494,3.308
					c-0.511-0.854-1.394-2.039-2.494-3.308c-0.526,4.565-4.851,7.448-9.396,8.59c0.574-5.667,0.003-11.036-0.986-15.86
					c-0.365-0.007-0.713,0.037-1.04,0.14c0.327-0.103,0.675-0.147,1.04-0.14C185.272,100.225,185.006,99.071,184.723,97.956z
					 M172.78,77.881c0.352,2.548,0.083,4.897-0.613,6.924c1.441-0.725,2.734-1.58,3.805-2.583c-1.071,1.002-2.364,1.858-3.805,2.583
					c-1.058,3.077-3.104,5.406-5.486,6.544c-4.86,2.324-11.288,0.478-16.145-3.33c-1.013-0.097-1.949-0.228-2.783-0.386
					c0.834,0.158,1.77,0.289,2.783,0.386c-4.445-3.485-7.574-8.614-6.979-13.697c0.472-4.045,4.114-8.927,10.418-9.911
					C162.701,63.053,171.735,70.293,172.78,77.881z M106.962,14.351c0.794-0.046,1.571-0.052,2.334-0.022
					c-1.311-1.631-2.782-3.033-4.45-4.006c1.667,0.973,3.139,2.375,4.45,4.006c9.881,0.394,17.071,7.071,19.013,15.27
					c2.02,8.526-2.629,15.733-6.354,21.854c-0.76-0.03-1.461-0.035-2.125-0.024c0.028,0.342,0.058,0.684,0.09,1.029
					c-0.032-0.345-0.062-0.688-0.09-1.029c-2.346,0.04-4.188,0.303-6.261,0.533c-2.684,0.297-5.429,1.299-8.131,1.271
					c-5.187-0.056-9.967-4.216-12.199-7.877C85.495,32.643,92.079,15.225,106.962,14.351z M41.908,100.244
					c-15.695,1.972-26.431-11.135-25.158-26.428c0.124-1.486,0.41-2.982,0.842-4.457c-2.918,1.665-5.6,3.707-8.612,5.519
					c3.012-1.813,5.694-3.854,8.612-5.519c2.863-9.774,12.203-18.639,24.062-17.651c11.707,0.975,18.927,8.886,23.187,18.312
					c0.931,0.498,1.67,1.08,2.123,1.767c-0.453-0.688-1.191-1.27-2.123-1.767c0.857,1.897,1.595,3.854,2.226,5.83
					c-3.433,4.528-6.396,8.742-9.148,14.23c-0.812,1.619-1.528,3.952-2.542,5.083C53.17,97.621,45.649,99.773,41.908,100.244z"/>
			</g>
			<g>
				<path fill="#F5FAFD" d="M173.138,138.583c-2.753-2.21-5.832-3.983-9.261-4.968c-5.296-1.523-10.876-0.987-16.127,0.454
					c-6.536,1.793-12.788,4.779-18.72,8.017c-6.542,3.57-12.793,7.706-18.602,12.376c-0.399,0.321-0.798,0.647-1.194,0.975
					c13.04,2.375,26.456,2.555,39.871-0.542c1.74-0.387,3.48-0.966,5.219-1.353c2.393-0.652,4.734-1.396,7.043-2.202
					C165.697,147.674,169.772,143.439,173.138,138.583z"/>
			</g>
			<g>
				<path fill="#D9D6D7" d="M149.105,154.895c-13.415,3.096-26.831,2.917-39.871,0.542c-4.665,3.85-9.067,8.093-12.791,12.866
					c7.576,1.914,15.771,2.544,23.733,1.57c16.787-2.053,29.707-8.894,40.913-18.296c0.093-0.078,0.185-0.157,0.278-0.236
					c-2.309,0.806-4.65,1.55-7.043,2.202C152.585,153.929,150.846,154.508,149.105,154.895z"/>
			</g>
			<g>
				<path fill="#28B3D3" d="M73.561,142.745c-1.268-3.67-1.032-7.698,1.382-10.736c1.802-2.268,5.035-3.871,9.657-4.067
					c6.618-0.279,16.007,4.31,14.993,13.215c-0.067,0.584-0.183,1.153-0.341,1.703c0.516,0.679,0.968,1.345,1.342,1.983
					c-0.374-0.638-0.826-1.304-1.342-1.983c-0.403,1.402-1.086,2.686-1.966,3.827c1.346-0.339,2.595-0.823,3.694-1.456
					c-1.099,0.633-2.348,1.117-3.694,1.456c-1.42,1.841-3.353,3.309-5.451,4.289c5.7,1.871,11.512,3.387,17.399,4.46
					c0.396-0.328,0.795-0.653,1.194-0.975c5.808-4.67,12.06-8.806,18.602-12.376c5.933-3.238,12.184-6.223,18.72-8.017
					c5.25-1.441,10.831-1.977,16.127-0.454c3.429,0.985,6.508,2.758,9.261,4.968c4.912-7.088,8.313-15.495,8.79-25.379
					c0.576-11.98-3.703-18.253-7.624-27.445c-2.175,2.468-2.815,4.206-4.828,5.845c-13.675,11.136-37.577-13.534-23.379-25.92
					c1.722-1.502,3.977-1.779,6.098-3.304c-8.844-4.589-18.516-9.628-31.765-9.148c-19.039,0.691-33.432,7.662-44.979,17.788
					c-11.118,9.751-20.233,22.121-21.6,40.151c-0.196,2.594-0.166,5.469,0,7.624c0.177,2.299,0.499,4.52,0.942,6.668
					c1.122,1.765,2.382,3.446,3.752,5.027C62.795,135.396,68.006,139.42,73.561,142.745z M132.628,104.563
					c4.258-0.302,8.748,2.288,12.453,1.017c2.762-0.945,3.008-5.062,2.794-8.132c0.089-0.333,0.448-0.399,0.508-0.762
					c0.254,0,0.508,0,0.763,0c1.746,2.788,0.539,8.927-1.779,10.418c-3.657,2.355-9.277-0.763-13.722-0.508
					c-6.777,0.389-10.975,9.85-18.805,7.877c-2.378-0.599-5.08-2.213-5.082-4.32c2.377-0.924,3.97,2.895,7.625,2.796
					C122.502,112.81,125.749,105.054,132.628,104.563z M69.861,97.194c0.791-11.489,9.108-18.548,20.33-19.567
					c13.399-1.217,23.526,11.103,16.771,23.634c-0.119,0.221-0.245,0.442-0.375,0.664c1.773-0.977,3.513-2.012,5.217-3.081
					c-1.704,1.068-3.444,2.104-5.217,3.081c-3.727,6.309-12.012,12.513-19.445,13.313c-6.959,0.749-12.604-3.002-15.406-8.565
					c-0.172-0.032-0.346-0.064-0.521-0.096c0.175,0.032,0.349,0.064,0.521,0.096C70.318,103.86,69.628,100.585,69.861,97.194z"/>
			</g>
			<g>
				<path fill="#2A93D1" d="M109.234,155.437c-5.888-1.073-11.699-2.59-17.399-4.46c-1.688,0.787-3.481,1.264-5.202,1.362
					c-6.169,0.354-11.222-4.239-13.072-9.593c-5.554-3.325-10.766-7.349-15.015-12.255c-1.37-1.581-2.631-3.262-3.752-5.027
					c2.792,13.54,10.563,24.132,19.642,31.958c5.744,4.951,13.485,8.729,22.009,10.882
					C100.167,163.53,104.57,159.286,109.234,155.437z"/>
			</g>
			<g>
				<path d="M97.306,141.157c-0.337,2.391-1.782,4.536-3.798,6.099c1.313-0.08,2.584-0.267,3.778-0.569
					c0.88-1.141,1.563-2.425,1.966-3.827c-0.558-0.732-1.191-1.481-1.888-2.224C97.35,140.808,97.331,140.981,97.306,141.157z"/>
			</g>
			<g>
				<path d="M97.286,146.687c-1.194,0.302-2.466,0.489-3.778,0.569c-2.973,2.305-7.191,3.345-10.94,2.033
					c-3.858-1.35-6.298-4.602-7.036-8.047c-0.787-0.792-1.462-1.652-1.997-2.583c0.534,0.931,1.209,1.792,1.997,2.583
					c-0.716-3.342,0.171-6.862,2.922-9.001c-1.196,0.331-2.333,0.908-3.373,1.78c1.04-0.872,2.176-1.449,3.373-1.78
					c1.49-1.158,3.523-1.912,6.146-2.011c5.472-0.206,13.4,3.144,12.764,10.407c0.696,0.743,1.33,1.491,1.888,2.224
					c0.158-0.55,0.274-1.119,0.341-1.703c1.014-8.905-8.375-13.494-14.993-13.215c-4.623,0.196-7.855,1.799-9.657,4.067
					c-2.414,3.038-2.65,7.065-1.382,10.736c0.085,0.051,0.169,0.103,0.255,0.154c0.593,0.352,1.191,0.696,1.794,1.034
					c-0.603-0.337-1.201-0.682-1.794-1.034c-0.086-0.051-0.169-0.104-0.255-0.154c1.85,5.354,6.903,9.948,13.072,9.593
					c1.721-0.099,3.514-0.575,5.202-1.362c-0.591-0.194-1.181-0.392-1.77-0.594c0.588,0.202,1.179,0.4,1.77,0.594
					C93.934,149.996,95.866,148.528,97.286,146.687z"/>
			</g>
			<g>
				<path fill="#2A93D1" d="M75.531,141.242c0.738,3.445,3.178,6.697,7.036,8.047c3.749,1.312,7.967,0.272,10.94-2.033
					C87.101,147.647,79.72,145.455,75.531,141.242z"/>
			</g>
			<g>
				<path fill="#59CBF2" d="M97.364,140.637C98,133.374,90.072,130.024,84.6,130.23c-2.624,0.099-4.657,0.853-6.146,2.011
					C84.664,130.521,92.523,135.469,97.364,140.637z"/>
			</g>
			<g>
				<path fill="#28B3D3" d="M97.306,141.157c0.024-0.176,0.043-0.349,0.058-0.521c-4.841-5.168-12.701-10.115-18.911-8.396
					c-2.751,2.139-3.639,5.66-2.922,9.001c4.189,4.213,11.57,6.405,17.977,6.014C95.524,145.693,96.969,143.548,97.306,141.157z"/>
			</g>
		</g>
		<g>
			<path fill="#59CBF2" d="M124.873,57.555c-2.232-2.82-5.266-2.416-8.3-2.283c-6.935,0.303-11.855,1.738-18.212,4.691
				c-1.794,0.833-11.065,4.557-9.774,7.668c1.681,4.048,14.596,2.325,17.808,1.661C109.587,68.631,129.345,63.205,124.873,57.555z"
				/>
		</g>
	</g>
	<g>
		<g>
			<polygon fill="#E44D26" points="199.054,153.784 188.354,33.768 305.932,33.768 295.22,153.765 247.071,167.114 			"/>
		</g>
		<g>
			<polygon fill="#F16529" points="247.143,156.91 286.05,146.124 295.204,43.581 247.143,43.581 			"/>
		</g>
		<g>
			<polygon fill="#EBEBEB" points="247.143,88.093 227.665,88.093 226.32,73.021 247.143,73.021 247.143,58.301 247.092,58.301 
				210.234,58.301 210.585,62.25 214.204,102.813 247.143,102.813 			"/>
		</g>
		<g>
			<polygon fill="#EBEBEB" points="247.143,126.321 247.079,126.338 230.685,121.912 229.638,110.172 221.671,110.172 
				214.861,110.172 216.923,133.285 247.075,141.655 247.143,141.636 			"/>
		</g>
		<g>
			<polygon fill="#FFFFFF" points="247.092,88.093 247.092,102.813 265.217,102.813 263.509,121.903 247.092,126.333 
				247.092,141.647 277.268,133.285 277.489,130.797 280.948,92.046 281.308,88.093 277.341,88.093 			"/>
		</g>
		<g>
			<polygon fill="#FFFFFF" points="247.092,58.301 247.092,67.443 247.092,72.984 247.092,73.021 282.599,73.021 282.599,73.021 
				282.646,73.021 282.942,69.711 283.612,62.25 283.965,58.301 			"/>
		</g>
		<g>
			<path d="M247.07,171.183l-51.681-14.347l-11.322-126.99h126.152l-11.334,126.973L247.07,171.183z M202.719,150.731l44.353,12.313
				l44.484-12.333l10.089-113.023H192.641L202.719,150.731z"/>
		</g>
	</g>
</g>
</svg>
