<?xml version="1.0" encoding="utf-8"?>
<!-- Generator: Adobe Illustrator 15.1.0, SVG Export Plug-In . SVG Version: 6.00 Build 0)  -->
<!DOCTYPE svg PUBLIC "-//W3C//DTD SVG 1.1//EN" "http://www.w3.org/Graphics/SVG/1.1/DTD/svg11.dtd">
<svg version="1.1" id="Layer_1" xmlns="http://www.w3.org/2000/svg" xmlns:xlink="http://www.w3.org/1999/xlink" x="0px" y="0px"
	 width="392.167px" height="218px" viewBox="259 104 392.167 218" enable-background="new 259 104 392.167 218"
	 xml:space="preserve">
<g>
	
		<image overflow="visible" opacity="0.75" width="129" height="56" xlink:href="FA160E6A.png"  transform="matrix(1 0 0 1 263.9551 199.1143)">
	</image>
	<g>
		<linearGradient id="SVGID_1_" gradientUnits="userSpaceOnUse" x1="326.2734" y1="248.6328" x2="326.2734" y2="201.4414">
			<stop  offset="0" style="stop-color:#0076E7"/>
			<stop  offset="1" style="stop-color:#00AEFF"/>
		</linearGradient>
		<rect x="265.468" y="201.441" fill="url(#SVGID_1_)" width="121.612" height="47.191"/>
		
			<rect x="265.468" y="201.441" fill="none" stroke="#000000" stroke-linejoin="round" stroke-miterlimit="10" width="121.612" height="47.191"/>
	</g>
</g>
<path d="M283.309,227.145l1.986-0.164c0.1,0.796,0.32,1.453,0.664,1.969c0.343,0.514,0.879,0.932,1.61,1.251
	c0.73,0.319,1.55,0.478,2.458,0.478c0.809,0,1.523-0.123,2.143-0.367c0.619-0.246,1.083-0.576,1.391-0.994
	c0.307-0.418,0.459-0.871,0.459-1.361c0-0.504-0.146-0.941-0.44-1.316c-0.295-0.375-0.779-0.689-1.454-0.947
	c-0.43-0.172-1.381-0.432-2.854-0.783c-1.473-0.349-2.502-0.684-3.092-1.002c-0.761-0.405-1.328-0.902-1.703-1.491
	c-0.373-0.589-0.561-1.252-0.561-1.987c0-0.811,0.23-1.568,0.689-2.274c0.46-0.704,1.13-1.239,2.007-1.6
	c0.878-0.362,1.854-0.543,2.935-0.543c1.19,0,2.24,0.189,3.148,0.57c0.907,0.38,1.604,0.941,2.089,1.683
	c0.484,0.743,0.745,1.588,0.781,2.531l-2.024,0.148c-0.109-1.007-0.481-1.771-1.112-2.293c-0.633-0.521-1.562-0.781-2.79-0.781
	c-1.275,0-2.207,0.236-2.797,0.708c-0.588,0.472-0.883,1.04-0.883,1.702c0,0.576,0.209,1.05,0.625,1.417
	c0.405,0.368,1.47,0.749,3.195,1.142c1.723,0.393,2.903,0.736,3.541,1.03c0.934,0.431,1.623,0.974,2.07,1.629
	c0.448,0.657,0.672,1.414,0.672,2.274c0,0.858-0.244,1.664-0.735,2.42c-0.491,0.754-1.192,1.34-2.107,1.757
	s-1.942,0.626-3.084,0.626c-1.446,0-2.662-0.211-3.644-0.635s-1.75-1.059-2.31-1.904
	C283.625,229.188,283.333,228.225,283.309,227.145z M297.689,226.5c0-2.146,0.602-3.742,1.805-4.785
	c0.994-0.859,2.208-1.287,3.645-1.287c1.595,0,2.898,0.523,3.91,1.572c1.012,1.05,1.519,2.494,1.519,4.335
	c0,1.497-0.224,2.673-0.673,3.524c-0.446,0.853-1.098,1.516-1.949,1.988c-0.854,0.472-1.79,0.708-2.807,0.708
	c-1.621,0-2.934-0.521-3.939-1.563C298.193,229.948,297.689,228.452,297.689,226.5z M299.713,226.5c0,1.484,0.326,2.596,0.977,3.332
	c0.65,0.735,1.467,1.104,2.449,1.104c0.98,0,1.793-0.372,2.438-1.114s0.967-1.873,0.967-3.396c0-1.435-0.325-2.521-0.976-3.257
	c-0.649-0.736-1.46-1.105-2.429-1.105c-0.982,0-1.799,0.369-2.449,1.105S299.713,225.016,299.713,226.5z M318.249,232.299v-1.713
	c-0.896,1.314-2.122,1.97-3.681,1.97c-0.675,0-1.311-0.132-1.904-0.396c-0.596-0.264-1.038-0.593-1.326-0.984
	c-0.288-0.393-0.494-0.877-0.615-1.454c-0.076-0.394-0.111-1.006-0.111-1.842v-7.196h1.97v6.443c0,1.03,0.036,1.724,0.11,2.079
	c0.121,0.516,0.387,0.921,0.791,1.215c0.405,0.295,0.902,0.441,1.49,0.441c0.59,0,1.141-0.15,1.656-0.45
	c0.516-0.302,0.881-0.711,1.095-1.233c0.216-0.521,0.323-1.28,0.322-2.273v-6.222h1.971v11.615H318.249z M322.852,232.299v-11.615
	h1.767v1.768c0.454-0.822,0.871-1.365,1.251-1.629c0.381-0.264,0.805-0.395,1.27-0.395c0.663,0,1.338,0.215,2.025,0.643
	l-0.681,1.822c-0.479-0.281-0.964-0.423-1.455-0.423c-0.429,0-0.812,0.13-1.15,0.386c-0.337,0.26-0.579,0.614-0.726,1.068
	c-0.221,0.699-0.332,1.467-0.332,2.301v6.074H322.852z M337.771,228.047l1.931,0.257c-0.208,1.326-0.747,2.366-1.618,3.12
	c-0.873,0.754-1.945,1.132-3.223,1.132c-1.582,0-2.854-0.518-3.818-1.556c-0.963-1.036-1.445-2.525-1.445-4.463
	c0-1.25,0.207-2.347,0.618-3.285c0.411-0.939,1.042-1.645,1.896-2.117c0.853-0.472,1.775-0.707,2.77-0.707
	c1.264,0,2.295,0.318,3.092,0.956c0.799,0.639,1.312,1.547,1.547,2.725l-1.916,0.294c-0.184-0.785-0.508-1.373-0.975-1.768
	c-0.466-0.393-1.023-0.589-1.675-0.589c-0.993,0-1.8,0.356-2.42,1.069c-0.619,0.71-0.93,1.834-0.93,3.367
	c0,1.559,0.302,2.69,0.901,3.396c0.602,0.706,1.381,1.059,2.338,1.059c0.773,0,1.418-0.237,1.934-0.709
	S337.623,229.028,337.771,228.047z M349.127,228.562l2.023,0.257c-0.318,1.178-0.91,2.095-1.775,2.752
	c-0.865,0.656-1.973,0.984-3.322,0.984c-1.693,0-3.037-0.521-4.03-1.563c-0.994-1.044-1.491-2.511-1.491-4.399
	c0-1.952,0.5-3.466,1.5-4.547c1-1.079,2.303-1.618,3.91-1.618c1.559,0,2.828,0.527,3.812,1.582c0.981,1.055,1.472,2.546,1.472,4.473
	c0,0.11-0.006,0.282-0.019,0.515h-8.651c0.075,1.276,0.437,2.252,1.086,2.927c0.652,0.675,1.461,1.013,2.432,1.013
	c0.711,0,1.32-0.188,1.83-0.562C348.412,230,348.82,229.396,349.127,228.562z M342.666,225.379h6.479
	c-0.086-0.971-0.331-1.7-0.736-2.191c-0.626-0.76-1.441-1.142-2.447-1.142c-0.896,0-1.654,0.304-2.273,0.912
	C343.068,223.565,342.729,224.372,342.666,225.379z M366.367,232.299h-1.969v-12.533c-0.466,0.453-1.086,0.903-1.859,1.352
	c-0.772,0.448-1.465,0.789-2.079,1.021v-1.914c1.104-0.516,2.067-1.141,2.89-1.878c0.821-0.736,1.404-1.446,1.748-2.135h1.27
	V232.299z"/>
<g>
	
		<image overflow="visible" opacity="0.75" width="129" height="55" xlink:href="FA160E6B.png"  transform="matrix(1 0 0 1 263.9551 266.1143)">
	</image>
	<g>
		<linearGradient id="SVGID_2_" gradientUnits="userSpaceOnUse" x1="326.2734" y1="314.8838" x2="326.2734" y2="267.6924">
			<stop  offset="0" style="stop-color:#0076E7"/>
			<stop  offset="1" style="stop-color:#00AEFF"/>
		</linearGradient>
		<rect x="265.468" y="267.692" fill="url(#SVGID_2_)" width="121.612" height="47.191"/>
		
			<rect x="265.468" y="267.692" fill="none" stroke="#000000" stroke-linejoin="round" stroke-miterlimit="10" width="121.612" height="47.191"/>
	</g>
</g>
<path d="M289.434,298.549v-16.012h6.019c1.214,0,2.193,0.159,2.935,0.479c0.743,0.319,1.322,0.816,1.74,1.49
	c0.416,0.676,0.625,1.381,0.625,2.116c0,0.688-0.184,1.335-0.553,1.942c-0.367,0.606-0.932,1.095-1.691,1.463
	c0.969,0.282,1.715,0.768,2.234,1.454c0.521,0.687,0.783,1.498,0.783,2.431c0,0.747-0.156,1.443-0.469,2.088
	c-0.314,0.645-0.703,1.141-1.169,1.491c-0.467,0.35-1.052,0.613-1.758,0.791s-1.567,0.267-2.586,0.267H289.434z M291.551,289.255
	h3.459c0.945,0,1.62-0.062,2.024-0.184c0.54-0.161,0.948-0.425,1.225-0.791c0.276-0.37,0.414-0.835,0.414-1.399
	c0-0.527-0.13-0.994-0.387-1.399c-0.259-0.404-0.622-0.685-1.095-0.837c-0.473-0.154-1.285-0.23-2.438-0.23h-3.202V289.255z
	 M291.551,296.653h3.993c0.688,0,1.165-0.024,1.436-0.073c0.491-0.087,0.901-0.23,1.233-0.434c0.33-0.201,0.601-0.499,0.809-0.893
	c0.209-0.392,0.314-0.841,0.314-1.342c0-0.603-0.153-1.123-0.461-1.566c-0.307-0.441-0.73-0.752-1.27-0.93
	c-0.54-0.177-1.319-0.267-2.338-0.267h-3.717V296.653z M311.527,298.549v-1.711c-0.896,1.313-2.123,1.969-3.682,1.969
	c-0.675,0-1.31-0.131-1.904-0.396c-0.596-0.264-1.038-0.591-1.326-0.984c-0.288-0.392-0.494-0.877-0.615-1.452
	c-0.074-0.394-0.111-1.007-0.111-1.842v-7.196h1.969v6.441c0,1.03,0.037,1.724,0.111,2.08c0.123,0.517,0.387,0.92,0.791,1.215
	c0.405,0.295,0.902,0.441,1.49,0.441c0.59,0,1.141-0.151,1.656-0.45c0.516-0.302,0.881-0.713,1.096-1.232
	c0.215-0.523,0.322-1.281,0.322-2.275v-6.22h1.97v11.613H311.527z M316.625,298.549v-10.067h-1.748v-1.546h1.748v-1.232
	c0-0.774,0.067-1.351,0.203-1.731c0.184-0.516,0.514-0.929,0.994-1.242c0.479-0.313,1.146-0.469,2.006-0.469
	c0.553,0,1.166,0.062,1.84,0.185l-0.293,1.729c-0.405-0.073-0.792-0.111-1.161-0.111c-0.601,0-1.023,0.126-1.271,0.379
	c-0.244,0.25-0.367,0.727-0.367,1.426v1.067h2.264v1.546h-2.264v10.067H316.625z M322.73,298.549v-10.067h-1.748v-1.546h1.748
	v-1.232c0-0.774,0.068-1.351,0.203-1.731c0.184-0.516,0.516-0.929,0.994-1.242s1.146-0.469,2.006-0.469
	c0.553,0,1.166,0.062,1.841,0.185l-0.295,1.729c-0.405-0.073-0.791-0.111-1.159-0.111c-0.601,0-1.025,0.126-1.27,0.379
	c-0.246,0.25-0.369,0.727-0.369,1.426v1.067h2.264v1.546h-2.264v10.067H322.73z M336.31,294.812l2.024,0.259
	c-0.32,1.178-0.911,2.094-1.775,2.751c-0.867,0.656-1.974,0.984-3.323,0.984c-1.692,0-3.038-0.521-4.031-1.563
	c-0.993-1.044-1.489-2.511-1.489-4.399c0-1.952,0.5-3.467,1.5-4.547c1-1.079,2.303-1.619,3.91-1.619c1.559,0,2.828,0.527,3.81,1.584
	c0.981,1.055,1.472,2.544,1.472,4.471c0,0.111-0.006,0.283-0.019,0.516h-8.649c0.074,1.275,0.436,2.252,1.086,2.928
	c0.65,0.674,1.459,1.011,2.43,1.011c0.711,0,1.322-0.187,1.83-0.56C335.594,296.251,336.002,295.647,336.31,294.812z M329.85,291.63
	h6.478c-0.086-0.971-0.331-1.7-0.735-2.19c-0.627-0.762-1.443-1.143-2.447-1.143c-0.896,0-1.654,0.305-2.273,0.911
	C330.25,289.815,329.91,290.623,329.85,291.63z M340.561,298.549v-11.613h1.768v1.766c0.455-0.82,0.871-1.363,1.252-1.629
	c0.381-0.262,0.803-0.395,1.27-0.395c0.662,0,1.338,0.216,2.025,0.645l-0.682,1.822c-0.479-0.282-0.963-0.425-1.454-0.425
	c-0.43,0-0.812,0.13-1.15,0.388c-0.338,0.259-0.579,0.612-0.727,1.066c-0.222,0.699-0.332,1.469-0.332,2.302v6.073H340.561z
	 M360.869,298.549h-1.971v-12.534c-0.466,0.454-1.086,0.905-1.857,1.353c-0.773,0.449-1.467,0.79-2.08,1.022v-1.915
	c1.104-0.515,2.067-1.14,2.889-1.876c0.822-0.736,1.405-1.449,1.749-2.137h1.271V298.549z"/>
<path fill="none" stroke="#000000" stroke-width="2" stroke-linejoin="round" stroke-miterlimit="10" d="M326.274,267.692v-19.06"/>
<g>
	
		<image overflow="visible" opacity="0.75" width="237" height="166" xlink:href="FA160E68.png"  transform="matrix(1 0 0 1 411.5 107.5)">
	</image>
	<g>
		<linearGradient id="SVGID_3_" gradientUnits="userSpaceOnUse" x1="527.9316" y1="109.5" x2="527.9316" y2="267.6929">
			<stop  offset="0" style="stop-color:#D00600"/>
			<stop  offset="1" style="stop-color:#A20E00"/>
		</linearGradient>
		<rect x="413.127" y="109.5" fill="url(#SVGID_3_)" width="229.61" height="158.192"/>
		
			<rect x="413.127" y="109.5" fill="none" stroke="#000000" stroke-linejoin="round" stroke-miterlimit="10" width="229.61" height="158.192"/>
	</g>
</g>
<path fill="none" stroke="#000000" stroke-width="2" stroke-linejoin="round" stroke-miterlimit="10" d="M387.08,225.037h64.527"/>
<g>
	<polygon points="451.607,225.037 448.959,227.687 456.236,225.037 448.959,222.388 	"/>
	<polygon fill="none" stroke="#000000" stroke-width="2" stroke-miterlimit="10" points="451.607,225.037 448.959,227.687 
		456.236,225.037 448.959,222.388 	"/>
</g>
<g>
	
		<image overflow="visible" opacity="0.75" width="151" height="55" xlink:href="FA160E69.png"  transform="matrix(1 0 0 1 454.5 199.5)">
	</image>
	<g>
		<linearGradient id="SVGID_4_" gradientUnits="userSpaceOnUse" x1="527.9316" y1="248.6309" x2="527.9316" y2="201.4414">
			<stop  offset="0" style="stop-color:#0076E7"/>
			<stop  offset="1" style="stop-color:#00AEFF"/>
		</linearGradient>
		<rect x="456.236" y="201.441" fill="url(#SVGID_4_)" width="143.392" height="47.189"/>
		
			<rect x="456.236" y="201.441" fill="none" stroke="#000000" stroke-linejoin="round" stroke-miterlimit="10" width="143.392" height="47.189"/>
	</g>
</g>
<path d="M474.691,232.295v-16.011h5.521c1.24,0,2.188,0.075,2.854,0.222c0.906,0.208,1.687,0.589,2.337,1.141
	c0.846,0.724,1.476,1.642,1.895,2.751c0.418,1.11,0.625,2.379,0.625,3.802c0,1.214-0.139,2.292-0.421,3.231
	c-0.284,0.938-0.645,1.716-1.086,2.335c-0.439,0.621-0.929,1.104-1.454,1.456c-0.527,0.348-1.165,0.616-1.914,0.8
	c-0.751,0.185-1.61,0.273-2.579,0.273H474.691z M476.807,230.402h3.424c1.056,0,1.884-0.1,2.485-0.297
	c0.601-0.196,1.081-0.471,1.437-0.826c0.501-0.503,0.894-1.179,1.178-2.025c0.282-0.847,0.421-1.877,0.421-3.092
	c0-1.667-0.272-2.954-0.826-3.855c-0.553-0.903-1.221-1.507-2.005-1.812c-0.568-0.222-1.482-0.333-2.744-0.333h-3.369V230.402z
	 M498.256,228.562l2.022,0.257c-0.318,1.179-0.91,2.096-1.774,2.751c-0.864,0.657-1.972,0.984-3.324,0.984
	c-1.69,0-3.036-0.521-4.03-1.563c-0.994-1.044-1.491-2.509-1.491-4.399c0-1.948,0.502-3.465,1.501-4.546
	c0.998-1.08,2.306-1.62,3.911-1.62c1.56,0,2.827,0.529,3.812,1.584c0.979,1.055,1.471,2.546,1.471,4.472
	c0,0.11-0.005,0.283-0.021,0.518h-8.646c0.071,1.274,0.432,2.251,1.082,2.924c0.651,0.677,1.462,1.013,2.431,1.013
	c0.71,0,1.322-0.188,1.832-0.562C497.54,230,497.947,229.396,498.256,228.562z M491.795,225.377h6.479
	c-0.088-0.969-0.331-1.699-0.735-2.19c-0.627-0.762-1.444-1.142-2.447-1.142c-0.897,0-1.655,0.304-2.275,0.912
	C492.198,223.564,491.854,224.371,491.795,225.377z M501.735,228.836l1.95-0.312c0.112,0.785,0.415,1.384,0.911,1.795
	c0.497,0.411,1.193,0.616,2.087,0.616c0.91,0,1.581-0.185,2.019-0.553c0.433-0.368,0.651-0.796,0.651-1.287
	c0-0.443-0.189-0.791-0.571-1.048c-0.269-0.175-0.938-0.394-2.003-0.663c-1.451-0.368-2.453-0.684-3.013-0.947
	c-0.556-0.264-0.979-0.632-1.267-1.106c-0.291-0.473-0.436-0.99-0.436-1.552c0-0.519,0.121-0.996,0.36-1.438
	c0.238-0.442,0.562-0.81,0.964-1.105c0.309-0.222,0.726-0.411,1.253-0.57c0.527-0.157,1.094-0.24,1.694-0.24
	c0.921,0,1.726,0.132,2.41,0.396c0.687,0.264,1.193,0.62,1.519,1.068c0.326,0.447,0.549,1.047,0.674,1.794l-1.916,0.259
	c-0.087-0.59-0.34-1.055-0.763-1.39c-0.425-0.337-1.016-0.507-1.777-0.507c-0.906,0-1.552,0.152-1.933,0.45
	c-0.381,0.303-0.569,0.647-0.569,1.041c0,0.256,0.079,0.49,0.238,0.699c0.159,0.207,0.41,0.382,0.757,0.516
	c0.193,0.075,0.769,0.244,1.729,0.516c1.387,0.369,2.355,0.667,2.908,0.901c0.551,0.232,0.982,0.576,1.296,1.031
	c0.314,0.454,0.47,1.019,0.47,1.691c0,0.652-0.191,1.269-0.569,1.852c-0.382,0.584-0.935,1.031-1.656,1.345
	c-0.725,0.312-1.542,0.467-2.448,0.467c-1.511,0-2.658-0.313-3.451-0.939C502.461,230.99,501.955,230.063,501.735,228.836z
	 M517.821,230.532l0.273,1.748c-0.553,0.109-1.049,0.164-1.491,0.164c-0.71,0-1.263-0.113-1.654-0.34
	c-0.393-0.227-0.669-0.522-0.83-0.883c-0.159-0.362-0.238-1.138-0.238-2.331v-6.662h-1.451v-1.544h1.451v-2.873l1.953-1.178v4.051
	h1.987v1.544h-1.987v6.774c0,0.564,0.031,0.927,0.099,1.086c0.07,0.159,0.183,0.288,0.343,0.389
	c0.159,0.097,0.386,0.144,0.682,0.144C517.165,230.621,517.453,230.591,517.821,230.532z M519.638,218.529v-2.245h1.971v2.245
	H519.638z M519.638,232.295v-11.61h1.971v11.61H519.638z M524.501,232.295v-11.61h1.766v1.656c0.861-1.277,2.094-1.916,3.7-1.916
	c0.701,0,1.342,0.127,1.934,0.378c0.59,0.251,1.029,0.583,1.316,0.994c0.289,0.41,0.493,0.892,0.616,1.444
	c0.072,0.366,0.109,1.008,0.109,1.916v7.138h-1.967v-7.066c0-0.795-0.08-1.395-0.231-1.794c-0.154-0.397-0.428-0.716-0.82-0.947
	c-0.392-0.233-0.852-0.351-1.379-0.351c-0.835,0-1.556,0.264-2.161,0.791c-0.61,0.528-0.916,1.54-0.916,3.036v6.331H524.501z
	 M544.305,230.861c-0.734,0.627-1.441,1.066-2.117,1.314c-0.674,0.253-1.396,0.378-2.171,0.378c-1.263,0-2.237-0.308-2.926-0.93
	c-0.688-0.618-1.031-1.414-1.031-2.383c0-0.577,0.13-1.098,0.389-1.562c0.257-0.467,0.593-0.84,1.011-1.124
	c0.418-0.282,0.89-0.496,1.418-0.646c0.394-0.109,0.976-0.209,1.748-0.293c1.596-0.197,2.766-0.423,3.517-0.681
	c0-0.269,0-0.443,0-0.518c0-0.795-0.185-1.361-0.553-1.691c-0.504-0.44-1.251-0.663-2.247-0.663c-0.918,0-1.599,0.159-2.042,0.479
	c-0.441,0.32-0.768,0.897-0.977,1.732l-1.93-0.278c0.184-0.82,0.471-1.486,0.872-1.987c0.399-0.503,0.977-0.893,1.731-1.169
	c0.754-0.275,1.636-0.415,2.639-0.415c0.993,0,1.8,0.117,2.41,0.352c0.616,0.232,1.068,0.525,1.362,0.885
	c0.296,0.353,0.497,0.802,0.608,1.342c0.075,0.332,0.112,0.933,0.112,1.803v2.633c0,1.828,0.039,2.982,0.118,3.471
	c0.08,0.482,0.25,0.945,0.507,1.386h-2.062C544.484,231.893,544.354,231.413,544.305,230.861z M544.142,226.48
	c-0.714,0.283-1.787,0.527-3.221,0.736c-0.812,0.112-1.382,0.238-1.715,0.387c-0.329,0.146-0.586,0.363-0.771,0.645
	c-0.184,0.282-0.277,0.594-0.277,0.938c0,0.527,0.198,0.966,0.598,1.314c0.4,0.351,0.979,0.527,1.739,0.527
	c0.762,0,1.437-0.169,2.025-0.508c0.59-0.337,1.024-0.789,1.307-1.351c0.21-0.456,0.314-1.114,0.314-1.971V226.48z M553.251,230.532
	l0.277,1.748c-0.551,0.109-1.048,0.164-1.491,0.164c-0.713,0-1.264-0.113-1.657-0.34c-0.393-0.227-0.667-0.522-0.826-0.883
	c-0.159-0.362-0.239-1.138-0.239-2.331v-6.662h-1.455v-1.544h1.455v-2.873l1.949-1.178v4.051h1.987v1.544h-1.987v6.774
	c0,0.564,0.034,0.927,0.101,1.086c0.067,0.159,0.182,0.288,0.341,0.389c0.159,0.097,0.387,0.144,0.68,0.144
	C552.594,230.621,552.883,230.591,553.251,230.532z M555.07,218.529v-2.245h1.967v2.245H555.07z M555.07,232.295v-11.61h1.967v11.61
	H555.07z M559.196,226.5c0-2.146,0.603-3.741,1.802-4.784c0.994-0.86,2.211-1.291,3.645-1.291c1.597,0,2.9,0.524,3.912,1.573
	c1.011,1.048,1.518,2.494,1.518,4.335c0,1.5-0.223,2.673-0.671,3.528c-0.446,0.849-1.099,1.512-1.95,1.984
	c-0.852,0.474-1.789,0.708-2.809,0.708c-1.617,0-2.932-0.521-3.938-1.563C559.7,229.946,559.196,228.449,559.196,226.5z
	 M561.222,226.5c0,1.484,0.323,2.595,0.974,3.33c0.652,0.736,1.467,1.104,2.447,1.104c0.981,0,1.798-0.372,2.438-1.114
	c0.646-0.741,0.97-1.874,0.97-3.395c0-1.436-0.328-2.521-0.978-3.258c-0.65-0.738-1.458-1.104-2.431-1.104
	c-0.98,0-1.795,0.366-2.447,1.104C561.545,223.904,561.222,225.015,561.222,226.5z M572.155,232.295v-11.61h1.765v1.656
	c0.859-1.277,2.092-1.916,3.702-1.916c0.698,0,1.342,0.127,1.931,0.378s1.025,0.583,1.317,0.994c0.287,0.41,0.494,0.892,0.616,1.444
	c0.071,0.366,0.11,1.008,0.11,1.916v7.138h-1.97v-7.066c0-0.795-0.077-1.395-0.231-1.794c-0.154-0.397-0.428-0.716-0.819-0.947
	c-0.393-0.233-0.85-0.351-1.379-0.351c-0.833,0-1.556,0.264-2.162,0.791c-0.608,0.528-0.913,1.54-0.913,3.036v6.331H572.155z"/>
<path fill="#FFFFFF" d="M478.712,136.77l-4.251-16.012h2.172l2.431,10.491c0.268,1.104,0.496,2.196,0.68,3.275
	c0.402-1.705,0.645-2.693,0.716-2.962l3.057-10.804h2.559l2.302,8.098c0.577,2.012,0.985,3.902,1.232,5.668
	c0.209-1.006,0.478-2.165,0.81-3.478l2.502-10.289h2.135l-4.398,16.012h-2.042l-3.37-12.202c-0.28-1.019-0.446-1.645-0.496-1.877
	c-0.168,0.735-0.33,1.361-0.478,1.877l-3.404,12.202H478.712z M504.349,133.033l2.024,0.258c-0.318,1.178-0.911,2.096-1.776,2.752
	c-0.864,0.656-1.973,0.985-3.318,0.985c-1.696,0-3.038-0.522-4.032-1.565c-0.993-1.043-1.489-2.51-1.489-4.398
	c0-1.951,0.496-3.467,1.497-4.546c1.002-1.08,2.303-1.62,3.912-1.62c1.559,0,2.826,0.528,3.81,1.583
	c0.982,1.056,1.473,2.546,1.473,4.472c0,0.111-0.008,0.282-0.018,0.516h-8.652c0.075,1.277,0.438,2.252,1.086,2.927
	c0.65,0.675,1.462,1.013,2.431,1.013c0.713,0,1.321-0.188,1.832-0.562C503.636,134.473,504.043,133.868,504.349,133.033z
	 M497.888,129.85h6.48c-0.084-0.969-0.333-1.7-0.736-2.191c-0.625-0.761-1.439-1.141-2.449-1.141c-0.894,0-1.652,0.304-2.271,0.911
	C498.29,128.036,497.953,128.843,497.888,129.85z M510.44,136.77h-1.82v-16.012h1.95v5.705c0.834-1.042,1.896-1.564,3.186-1.564
	c0.711,0,1.387,0.145,2.023,0.432c0.639,0.29,1.162,0.693,1.574,1.215c0.41,0.522,0.731,1.151,0.964,1.887
	c0.234,0.735,0.354,1.521,0.354,2.355c0,1.987-0.493,3.525-1.475,4.611s-2.159,1.629-3.535,1.629c-1.373,0-2.446-0.572-3.222-1.712
	V136.77z M510.424,130.881c0,1.386,0.184,2.393,0.552,3.018c0.626,1.006,1.468,1.51,2.522,1.51c0.86,0,1.6-0.371,2.227-1.113
	c0.626-0.744,0.939-1.857,0.939-3.342c0-1.509-0.301-2.625-0.903-3.349c-0.601-0.725-1.323-1.086-2.172-1.086
	c-0.856,0-1.603,0.374-2.227,1.124C510.737,128.39,510.424,129.469,510.424,130.881z M525.439,136.77l6.163-16.012h2.284
	l6.553,16.012h-2.411l-1.878-4.859h-6.699l-1.751,4.859H525.439z M530.057,130.199h5.432l-1.656-4.454
	c-0.516-1.338-0.897-2.442-1.141-3.313c-0.209,1.031-0.498,2.05-0.866,3.055L530.057,130.199z M549.205,136.77v-1.712
	c-0.896,1.313-2.121,1.971-3.68,1.971c-0.675,0-1.31-0.134-1.907-0.396c-0.593-0.264-1.032-0.591-1.324-0.984
	c-0.287-0.394-0.493-0.878-0.616-1.455c-0.072-0.392-0.111-1.007-0.111-1.84v-7.196h1.971v6.442c0,1.03,0.038,1.724,0.111,2.078
	c0.121,0.516,0.385,0.921,0.791,1.216c0.405,0.294,0.901,0.441,1.491,0.441c0.588,0,1.142-0.15,1.653-0.45
	c0.519-0.302,0.884-0.712,1.099-1.234c0.214-0.521,0.321-1.278,0.321-2.272v-6.221h1.971v11.613H549.205z M561.355,136.77v-1.473
	c-0.737,1.153-1.818,1.731-3.24,1.731c-0.919,0-1.77-0.255-2.549-0.765c-0.78-0.51-1.381-1.221-1.804-2.136
	c-0.423-0.913-0.637-1.966-0.637-3.155c0-1.153,0.193-2.203,0.582-3.148c0.387-0.945,0.964-1.667,1.729-2.171
	c0.766-0.503,1.63-0.755,2.587-0.755c0.699,0,1.323,0.148,1.866,0.442c0.547,0.295,0.995,0.681,1.337,1.159v-5.742h1.948v16.012
	H561.355z M555.134,130.973c0,1.484,0.315,2.596,0.948,3.33c0.632,0.736,1.37,1.105,2.218,1.105c0.859,0,1.59-0.351,2.191-1.049
	c0.6-0.699,0.898-1.774,0.898-3.222c0-1.583-0.304-2.746-0.919-3.488c-0.612-0.743-1.366-1.113-2.264-1.113
	c-0.872,0-1.602,0.354-2.188,1.067C555.427,128.316,555.134,129.438,555.134,130.973z M566.067,123.003v-2.246h1.968v2.246H566.067z
	 M566.067,136.77v-11.613h1.968v11.613H566.067z M570.194,130.973c0-2.146,0.602-3.742,1.805-4.786
	c0.994-0.859,2.209-1.289,3.645-1.289c1.596,0,2.897,0.526,3.911,1.574c1.011,1.048,1.517,2.494,1.517,4.333
	c0,1.497-0.225,2.673-0.671,3.524c-0.448,0.854-1.099,1.516-1.952,1.988c-0.852,0.473-1.786,0.71-2.805,0.71
	c-1.619,0-2.932-0.522-3.941-1.565C570.699,134.42,570.194,132.922,570.194,130.973z M572.219,130.973
	c0,1.484,0.323,2.596,0.976,3.33c0.65,0.736,1.466,1.105,2.449,1.105c0.979,0,1.794-0.371,2.438-1.113
	c0.643-0.744,0.966-1.875,0.966-3.396c0-1.436-0.324-2.521-0.977-3.257c-0.647-0.737-1.459-1.104-2.428-1.104
	c-0.983,0-1.799,0.367-2.449,1.104C572.542,128.377,572.219,129.488,572.219,130.973z"/>
<path fill="#FFFFFF" d="M503.225,156.426l2.117,0.535c-0.441,1.741-1.24,3.068-2.395,3.983c-1.153,0.915-2.564,1.372-4.232,1.372
	c-1.729,0-3.133-0.354-4.214-1.059c-1.081-0.706-1.9-1.725-2.467-3.056c-0.562-1.331-0.846-2.765-0.846-4.298
	c0-1.668,0.315-3.123,0.947-4.361c0.633-1.24,1.538-2.181,2.716-2.826c1.178-0.645,2.47-0.966,3.882-0.966
	c1.61,0,2.956,0.409,4.05,1.224c1.094,0.816,1.854,1.961,2.281,3.434l-2.078,0.496c-0.367-1.165-0.909-2.016-1.619-2.55
	c-0.712-0.532-1.601-0.8-2.67-0.8c-1.227,0-2.256,0.295-3.083,0.883c-0.828,0.59-1.411,1.385-1.747,2.384
	c-0.337,1-0.507,2.027-0.507,3.083c0,1.363,0.199,2.55,0.596,3.562c0.401,1.013,1.019,1.771,1.859,2.273
	c0.843,0.504,1.746,0.754,2.717,0.754c1.19,0,2.196-0.34,3.019-1.021C502.37,158.791,502.932,157.776,503.225,156.426z
	 M506.671,156.242c0-2.146,0.603-3.742,1.806-4.785c0.994-0.859,2.209-1.288,3.645-1.288c1.596,0,2.896,0.524,3.911,1.573
	c1.009,1.049,1.517,2.494,1.517,4.334c0,1.498-0.225,2.672-0.671,3.525c-0.448,0.852-1.099,1.514-1.952,1.986
	c-0.852,0.474-1.788,0.71-2.805,0.71c-1.619,0-2.935-0.522-3.941-1.564C507.177,159.689,506.671,158.193,506.671,156.242z
	 M508.696,156.242c0,1.484,0.323,2.596,0.976,3.33c0.65,0.738,1.465,1.105,2.449,1.105c0.979,0,1.794-0.371,2.438-1.113
	c0.643-0.742,0.966-1.875,0.966-3.396c0-1.436-0.325-2.521-0.977-3.257c-0.647-0.737-1.459-1.104-2.428-1.104
	c-0.984,0-1.799,0.367-2.449,1.104C509.02,153.646,508.696,154.758,508.696,156.242z M519.63,162.039v-11.612h1.768v1.655
	c0.856-1.275,2.089-1.913,3.699-1.913c0.699,0,1.342,0.126,1.932,0.376c0.588,0.253,1.027,0.583,1.316,0.994
	c0.289,0.412,0.494,0.895,0.616,1.445c0.072,0.367,0.112,1.006,0.112,1.914v7.141h-1.971v-7.066c0-0.798-0.078-1.396-0.232-1.795
	c-0.152-0.398-0.426-0.715-0.818-0.947c-0.394-0.233-0.851-0.351-1.38-0.351c-0.833,0-1.552,0.265-2.162,0.792
	c-0.608,0.527-0.911,1.539-0.911,3.037v6.33H519.63z M536.159,160.272l0.273,1.749c-0.551,0.11-1.049,0.165-1.49,0.165
	c-0.711,0-1.264-0.112-1.655-0.34c-0.393-0.228-0.669-0.522-0.83-0.884c-0.159-0.361-0.238-1.139-0.238-2.328v-6.663h-1.454v-1.545
	h1.454v-2.872l1.953-1.178v4.05h1.987v1.545h-1.987v6.773c0,0.563,0.033,0.927,0.1,1.086c0.068,0.159,0.182,0.288,0.34,0.387
	c0.161,0.098,0.388,0.147,0.684,0.147C535.501,160.365,535.791,160.334,536.159,160.272z M545.907,158.303l2.025,0.26
	c-0.318,1.177-0.911,2.094-1.775,2.75c-0.866,0.657-1.973,0.985-3.323,0.985c-1.694,0-3.036-0.522-4.03-1.564
	c-0.993-1.044-1.491-2.511-1.491-4.399c0-1.951,0.502-3.467,1.501-4.547c0.998-1.079,2.304-1.618,3.911-1.618
	c1.559,0,2.827,0.526,3.81,1.583c0.981,1.055,1.473,2.545,1.473,4.471c0,0.111-0.008,0.283-0.02,0.516h-8.649
	c0.071,1.277,0.435,2.252,1.086,2.927c0.65,0.675,1.461,1.013,2.431,1.013c0.709,0,1.321-0.187,1.828-0.562
	C545.194,159.742,545.602,159.139,545.907,158.303z M539.446,155.12h6.479c-0.085-0.97-0.329-1.7-0.735-2.19
	c-0.625-0.762-1.441-1.143-2.447-1.143c-0.897,0-1.652,0.305-2.273,0.912C539.85,153.306,539.509,154.113,539.446,155.12z
	 M548.871,162.039l4.234-6.035l-3.92-5.577h2.465l1.786,2.724c0.331,0.516,0.595,0.951,0.792,1.307
	c0.328-0.479,0.633-0.908,0.9-1.289l1.953-2.741h2.336l-3.994,5.466l4.307,6.146h-2.409l-2.394-3.606l-0.627-0.976l-3.053,4.582
	H548.871z M565.473,160.272l0.276,1.749c-0.552,0.11-1.048,0.165-1.491,0.165c-0.71,0-1.263-0.112-1.654-0.34
	c-0.393-0.228-0.671-0.522-0.83-0.884s-0.238-1.139-0.238-2.328v-6.663h-1.457v-1.545h1.457v-2.872l1.95-1.178v4.05h1.987v1.545
	h-1.987v6.773c0,0.563,0.032,0.927,0.102,1.086c0.067,0.159,0.18,0.288,0.339,0.387c0.162,0.098,0.387,0.147,0.683,0.147
	C564.814,160.365,565.106,160.334,565.473,160.272z"/>
</svg>
