<svg xmlns="http://www.w3.org/2000/svg" xmlns:xlink="http://www.w3.org/1999/xlink" width="620" height="907"><defs><path id="path3806" d="M441 328s124-5.64 97.6 69"/></defs><style>@import "http://fonts.googleapis.com/css?family=Reenie+Beanie"; .fill { fill: none; stroke: #4CA3CC; stroke-width: 17px; stroke-opacity: 0.32; } .box-text, .yep-nope { font-size: 32px; line-height: 1; fill: #000000; font-family: Reenie Beanie; text-anchor: middle; } .yep-nope { font-size: 28px; text-anchor: start; } .box-outline { fill: none; stroke: #000000; stroke-width: 6.3; stroke-linejoin: round; } .joiner { fill: none; stroke: #000000; stroke-width: 3.8; stroke-linecap: round; }</style><g transform="translate(124 -31)" class="box"><path class="fill" d="M298 63.4l-227 1 233 19-229-2 224 17h-222l225 19h-227l227 14-224 3"/><text class="box-text" y="95.362" x="186"><tspan x="186" y="95.362">User adds things</tspan><tspan x="186" y="124.162">to basket</tspan></text><path class="box-outline" d="M286 59.4l-206 5 16 71 186-1 7-56"/></g><g transform="translate(126 76)" class="box"><path d="M272 64.4l-179 1 179 19-173 1 171 18-172 2 165 12" class="fill"/><text class="box-text" y="97.362" x="186"><tspan y="97.362" x="186">Views basket</tspan></text><path d="M258 67.4l-153-3 7 47h149l5-31" class="box-outline"/></g><g transform="translate(126 157)" class="box"><path class="fill" d="M295 63.4l-226 4 226 16-220 4 218 15-219 5 212 9"/><text class="box-text" y="97.362" x="186"><tspan x="186" y="97.362">Clicks &quot;Checkout&quot;</tspan></text><path class="box-outline" d="M286 64.4l-201 2-3 44 201 1 7-36"/></g><g transform="translate(126 237)" class="box"><path d="M305 63.4l-249 3 255 17h-251l246 15-242 2 245 17-239 2 239 12-236 5" class="fill"/><text class="box-text" y="95.362" x="186"><tspan y="95.362" x="186">requestAutocomplete</tspan><tspan y="124.162" x="186">available?</tspan></text><path d="M299 62.4l-234 3 14 71 214 2 9-57" class="box-outline"/></g><g transform="translate(271 346)" class="box"><path class="fill" d="M311 63.4l-261 4 267 16-260 1 255 14-263 2 266 17-260 2 260 12-265 5"/><text class="box-text" y="95.362" x="186"><tspan x="186" y="95.362">User selects card</tspan><tspan x="186" y="124.162">and delivery address</tspan></text><path class="box-outline" d="M299 62.4l-226 4-8 72 241 1-4-58"/></g><g transform="translate(-16 349)" class="box"><path d="M304 69.4l-249-2 255 22-248-5 243 20-251-4 254 23-248-4 248 18-253-1" class="fill"/><text class="box-text" y="95.362" x="186"><tspan y="95.362" x="186">user completes</tspan><tspan y="124.162" x="186">soul-destroying form</tspan></text><path d="M290 65.4l-215 5-7 67 235 3-5-59" class="box-outline"/></g><g transform="translate(146.485 477.697)" class="box"><path d="M295 63.4l-226 4 226 16-220 4 218 15-219 5 212 9" class="fill"/><text class="box-text" y="97.362" x="186"><tspan y="97.362" x="186">Data validates?</tspan></text><path d="M279 67.4l-199-1 2 47 202-1v-35" class="box-outline"/></g><g transform="translate(6.515 601.242)" class="box"><path d="M297 64.4l-229 4 235 16-228 1 223 14-231 2 234 17-228 2 228 12-233 5" class="fill"/><text class="box-text" y="95.362" x="186"><tspan y="95.362" x="186">Show form with</tspan><tspan y="124.162" x="186">errors highlighted</tspan></text><path d="M287 62.4l-204 1-1 76h212l-4-58" class="box-outline"/></g><g transform="translate(278.212 597.939)" class="box"><path d="M311 63.4l-261 4 267 16-260 1 255 14-263 2 266 17-260 2 260 12-265 5" class="fill"/><text class="box-text" y="95.362" x="186"><tspan y="95.362" x="186">User confirms details</tspan><tspan y="124.162" x="186">and delivery cost</tspan></text><path d="M297 62.4l-237 4 5 72 241 1 1-59" class="box-outline"/></g><g transform="translate(138 747)" class="box"><path class="fill" d="M305 63.4l-249 3 255 17h-251l246 15-245 2 248 17-246 2 246 12-243 5"/><text class="box-text" y="107.362" x="184"><tspan x="184" y="107.362">Things bought!</tspan></text><path class="box-outline" d="M293 63.4l-219 2 4 71 213-7 3-49"/></g><g transform="translate(-55 477.182)" class="box"><path class="fill" d="M246 65.4l-133 6 133 14-127 6 125 13-126 7 119 7"/><text class="box-text" y="97.362" x="182"><tspan x="182" y="97.362">Resubmit</tspan></text><path class="box-outline" d="M235 66.4l-110 1 2 47 113-3v-35"/></g><path class="joiner" d="M313 103l-1 39"/><path class="joiner" d="M306 124l5.61 16.4 7-15"/><path class="joiner" d="M312 187l-1 34"/><path class="joiner" d="M305 209l6 12 6.4-12.7"/><path class="joiner" d="M311 267l-1 34"/><path class="joiner" d="M304 286l6 13 6-13.3"/><path class="joiner" d="M198 343s-165-6-96 74"/><path class="joiner" d="M85.3 408l17.5 9.53-4.4-17.1"/><path class="joiner" d="M424 341s145-19 115 65"/><path class="joiner" d="M536 387l4.13 19.5 10.8-17.5"/><text class="yep-nope" transform="translate(8 3)"><textPath xlink:href="#path3806"><tspan>Ohh yeah!</tspan></textPath></text><text transform="rotate(-5.637)" class="yep-nope" y="349.337" x="74.301"><tspan x="74.301" y="349.337">Nope</tspan></text><path class="joiner" d="M132 488c12.9 24.2 155 13.6 157 56.8"/><path class="joiner" d="M276 532l13.4 10.3.822-15.2"/><path class="joiner" d="M500 488c-19 21-127 14-124 56"/><path class="joiner" d="M373 528l.516 14.9 11.1-9.54"/><path class="joiner" d="M291 591c3.03 51.5-151 19.7-140 72"/><path class="joiner" d="M145 649l5.45 13.5 6.06-11.1"/><path class="joiner" d="M378 590c0 47 130 23 130 67"/><path class="joiner" d="M500 650l11 9.32.532-13.5"/><path class="joiner" d="M321 795l5.14 15.1 6.74-14"/><path class="joiner" d="M88.3 705c-69.7 0-83.3-140-20.5-139"/><path class="joiner" d="M54.2 561l15.2 5.14-11.9 7.87"/><path class="joiner" d="M187 567l39.4 1.52"/><path class="joiner" d="M209 563l14.3 4.92-14.2 5.98"/><path class="joiner" d="M468 739c.758 37.9-157 6.06-140 74.2"/><text transform="rotate(-7.941)" class="yep-nope" y="641.372" x="101.786"><tspan x="101.786" y="641.372">Nope</tspan></text><text transform="rotate(15.797)" class="yep-nope" y="467.477" x="596.388"><tspan x="596.388" y="467.477">Yep</tspan></text></svg>