<?xml version="1.0" encoding="utf-8"?>
<!-- Generator: Adobe Illustrator 14.0.0, SVG Export Plug-In . SVG Version: 6.00 Build 43363)  -->
<!DOCTYPE svg PUBLIC "-//W3C//DTD SVG 1.0//EN" "http://www.w3.org/TR/2001/REC-SVG-20010904/DTD/svg10.dtd">
<svg version="1.0" id="Layer_1" xmlns="http://www.w3.org/2000/svg" xmlns:xlink="http://www.w3.org/1999/xlink" x="0px" y="0px"
	 width="37.207px" height="100px" viewBox="0 0 37.207 100" enable-background="new 0 0 37.207 100" xml:space="preserve">
<circle cx="18.118" cy="8.159" r="8.159"/>
<path d="M8.472,95.426c0,2.524,2.05,4.574,4.574,4.574c2.529,0,4.576-2.05,4.576-4.574l0.004-38.374h2.037L19.65,95.426
	c0,2.524,2.048,4.574,4.574,4.574s4.573-2.05,4.573-4.574l0.02-66.158h2.006v24.38c0,4.905,6.398,4.905,6.384,0v-24.9
	c0-5.418-3.184-10.728-9.523-10.728L9.396,18.012C3.619,18.012,0,22.722,0,28.599v25.05c0,4.869,6.433,4.869,6.433,0v-24.38h2.048
	L8.472,95.426z"/>
</svg>
